<?xml version="1.0" encoding="UTF-8" standalone="no"?>
<!-- Generator: Adobe Illustrator 16.0.0, SVG Export Plug-In . SVG Version: 6.00 Build 0)  -->

<svg
   xmlns:dc="http://purl.org/dc/elements/1.1/"
   xmlns:cc="http://creativecommons.org/ns#"
   xmlns:rdf="http://www.w3.org/1999/02/22-rdf-syntax-ns#"
   xmlns:svg="http://www.w3.org/2000/svg"
   xmlns="http://www.w3.org/2000/svg"
   xmlns:sodipodi="http://sodipodi.sourceforge.net/DTD/sodipodi-0.dtd"
   xmlns:inkscape="http://www.inkscape.org/namespaces/inkscape"
   version="1.1"
   id="Layer_1"
   x="0px"
   y="0px"
   width="512px"
   height="512px"
   viewBox="0 0 512 512"
   enable-background="new 0 0 512 512"
   xml:space="preserve"
   inkscape:version="0.48.5 r10040"
   sodipodi:docname="map-marker.svg"><metadata
     id="metadata3134"><rdf:RDF><cc:Work
         rdf:about=""><dc:format>image/svg+xml</dc:format><dc:type
           rdf:resource="http://purl.org/dc/dcmitype/StillImage" /></cc:Work></rdf:RDF></metadata><defs
     id="defs3132"><inkscape:perspective
       sodipodi:type="inkscape:persp3d"
       inkscape:vp_x="0 : 256 : 1"
       inkscape:vp_y="0 : 1000 : 0"
       inkscape:vp_z="512 : 256 : 1"
       inkscape:persp3d-origin="256 : 170.66667 : 1"
       id="perspective3922" /></defs><sodipodi:namedview
     pagecolor="#ffffff"
     bordercolor="#666666"
     borderopacity="1"
     objecttolerance="10"
     gridtolerance="10"
     guidetolerance="10"
     inkscape:pageopacity="0"
     inkscape:pageshadow="2"
     inkscape:window-width="1280"
     inkscape:window-height="976"
     id="namedview3130"
     showgrid="false"
     inkscape:zoom="0.69191502"
     inkscape:cx="-60.717602"
     inkscape:cy="284.86446"
     inkscape:window-x="0"
     inkscape:window-y="0"
     inkscape:window-maximized="1"
     inkscape:current-layer="Layer_1" /><path
     sodipodi:type="arc"
     style="fill:#643300;fill-opacity:1;fill-rule:evenodd;stroke:none"
     id="path5316"
     sodipodi:cx="245.26945"
     sodipodi:cy="166.06787"
     sodipodi:rx="115.48104"
     sodipodi:ry="105.77245"
     d="m 360.7505,166.06787 a 115.48104,105.77245 0 1 1 -230.96209,0 115.48104,105.77245 0 1 1 230.96209,0 z"
     transform="translate(8.6866341,-15.329341)" /><path
     d="M256,0C167.641,0,96,71.625,96,160c0,24.75,5.625,48.219,15.672,69.125C112.234,230.313,256,512,256,512l142.594-279.375  C409.719,210.844,416,186.156,416,160C416,71.625,344.375,0,256,0z M256,256c-53.016,0-96-43-96-96s42.984-96,96-96  c53,0,96,43,96,96S309,256,256,256z"
     id="path3128"
     style="fill:#643300;fill-opacity:1" /><g
     id="g5307"
     transform="matrix(3.58094,0,0,3.58094,-170.0859,406.3532)"
     style="fill:none;stroke:#ffffff;stroke-opacity:1;stroke-width:1.61438058;stroke-miterlimit:4;stroke-dasharray:none"><path
       transform="matrix(-0.89900873,0,0,1.0875696,206.22249,3.7730182)"
       d="m 127.00259,-77.125801 c 0,8.580621 -8.81628,15.53659 -19.69172,15.53659 -10.875442,0 -19.691727,-6.955969 -19.691727,-15.53659 0,-8.580622 8.816285,-15.53659 19.691727,-15.53659 10.87544,0 19.69172,6.955968 19.69172,15.53659 z"
       sodipodi:ry="15.53659"
       sodipodi:rx="19.691725"
       sodipodi:cy="-77.125801"
       sodipodi:cx="107.31087"
       id="path5267"
       style="fill:none;stroke:#ffffff;stroke-width:1.63265883;stroke-miterlimit:4;stroke-opacity:1;stroke-dasharray:none"
       sodipodi:type="arc" /><path
       transform="matrix(-0.89900873,0,0,1.0875696,231.08916,10.392557)"
       d="m 127.00259,-77.125801 c 0,8.580621 -8.81628,15.53659 -19.69172,15.53659 -10.875442,0 -19.691727,-6.955969 -19.691727,-15.53659 0,-8.580622 8.816285,-15.53659 19.691727,-15.53659 10.87544,0 19.69172,6.955968 19.69172,15.53659 z"
       sodipodi:ry="15.53659"
       sodipodi:rx="19.691725"
       sodipodi:cy="-77.125801"
       sodipodi:cx="107.31087"
       id="path5267-5"
       style="fill:none;stroke:#ffffff;stroke-width:1.63265883;stroke-miterlimit:4;stroke-opacity:1;stroke-dasharray:none"
       sodipodi:type="arc" /><path
       transform="matrix(-0.89900873,0,0,1.0875696,211.08916,28.392557)"
       d="m 127.00259,-77.125801 c 0,8.580621 -8.81628,15.53659 -19.69172,15.53659 -10.875442,0 -19.691727,-6.955969 -19.691727,-15.53659 0,-8.580622 8.816285,-15.53659 19.691727,-15.53659 10.87544,0 19.69172,6.955968 19.69172,15.53659 z"
       sodipodi:ry="15.53659"
       sodipodi:rx="19.691725"
       sodipodi:cy="-77.125801"
       sodipodi:cx="107.31087"
       id="path5267-5-0"
       style="fill:none;stroke:#ffffff;stroke-width:1.63265883;stroke-miterlimit:4;stroke-opacity:1;stroke-dasharray:none"
       sodipodi:type="arc" /></g></svg>